<?xml version="1.0" encoding="UTF-8"?>
<svg id="Layer_1" data-name="Layer 1" xmlns="http://www.w3.org/2000/svg" viewBox="0 0 37.82 49.33">
  <defs>
    <style>
      .cls-1, .cls-2 {
        stroke-width: 0px;
      }

      .cls-2 {
        fill: #fff;
      }
    </style>
  </defs>
  <path class="cls-1" d="m8.66,15.62c1.8-3.98,2.46-4.32,6.05-3.56.32-1.05-.04-2.08-.13-3.11-.11-1.14-.26-2.29-.33-3.43-.09-1.4.39-2.65,1.21-3.76.92-1.25,2.15-1.93,3.72-1.72,1.6.21,2.61,1.23,3.01,2.72.42,1.57.66,3.19.95,4.79.14.75.21,1.51.34,2.47.51-.04.95-.05,1.37-.12,1.76-.3,2.95.51,3.8,1.96.6,1.02.81,2.15.83,3.31.02,1.43,0,2.87,0,4.2,1.41,1.21,2.68,2.35,4.01,3.41.43.35,1.01.54,1.54.74,1.22.44,1.87,1.27,1.92,2.57.05,1.15.17,2.3.18,3.45.01,1.71-.36,3.45.59,5.05.13.22.1.56.09.85-.06,2.97-.12,5.95-.19,8.92-.02.99-.49,1.61-1.45,1.88-1.1.32-2.18.75-3.3.99-2.81.61-5.62,1.19-8.45,1.69-4.6.8-9.17.32-13.71-.56-.09-.02-.19-.04-.28-.06-4.49-1.24-4.21-1.82-4.22-5.25-.02-3.45-.08-6.9-.94-10.28-.31-1.2-.41-2.46-.55-3.7-.23-2.01-.15-2.35.93-4.56-.31-.66-.71-1.41-1.03-2.19-1.37-3.3-.19-5.62,3.27-6.47.28-.07.54-.16.78-.23Zm26.66,19.72c-1.03-.54-1.86-.19-2.68.02-2.13.54-4.25,1.14-6.38,1.7-5.33,1.41-10.71,2.09-16.2,1.04-.54-.1-1.11-.01-1.83-.01-.24,1.89-.05,3.7-.03,5.49.02,1.78.33,2.12,2.02,2.64.46.14.92.26,1.39.33,7.21,1.09,14.32.53,21.33-1.45.7-.2,1.35-.59,2.01-.88.27-3.1.89-6.01.37-8.88Zm-16.07-9.22c.37-1.17.39-2.33.98-2.92,1.53-1.52,1.27-3.26,1.14-5.07-.09-1.24-.02-2.49-.1-3.73-.21-3.05-.44-6.1-.71-9.15-.07-.75-.27-1.51-.54-2.22-.43-1.17-1.65-1.44-2.53-.59-.95.92-1.37,2.05-1.2,3.38.58,4.36,1.07,8.73,1.76,13.07.35,2.23.48,4.36-.44,6.47-.05.13.08.34.18.66.4.02.85.05,1.45.08Zm-3.13-4.5c-.04-2.17-.55-4.1-1.43-5.91-.28-.58-.71-1.13-1.18-1.58-.69-.67-1.73-.43-2.12.46-.22.51-.36,1.08-.4,1.64-.15,2.4.78,4.46,2.16,6.34.5.68,1.08,1.58,2.01,1.33,1.17-.32.86-1.51.95-2.27Zm7.46-4.26h.11c0,.86-.05,1.72.02,2.58.05.56.23,1.12.44,1.64.23.59.76.84,1.37.86.65.02,1.11-.34,1.27-.94.65-2.42.97-4.87.56-7.36-.09-.55-.34-1.12-.67-1.55-.26-.34-.75-.65-1.17-.68-.59-.04-1.09.36-1.29.95-.19.54-.34,1.1-.41,1.66-.12.95-.15,1.9-.22,2.85Zm-12.72,6.5c-.07-1.78-1.32-3.7-2.64-5.57-.33-.46-1.18-.4-1.47.15-.3.57-.66,1.26-.57,1.83.32,2.17,1.47,3.89,3.33,5.08.65.42,1.34-.05,1.35-1.49Zm11.48-.22c-.79.57-.81,1.21-.47,1.85.34.64.96.88,1.66.95,1.86.18,6.23-.81,8.32-1.93-.42-1.35-1.38-1.93-2.67-2.03-.15.08-.25.11-.32.18-.2.2-.39.41-.58.62-1.48,1.66-2.28,1.88-4.24,1.13-.6-.23-1.18-.53-1.71-.77Zm.81,12.01c-.14-2.17-.29-4.23-.79-6.25-.14-.55-.62-.74-1.09-.56-.27.11-.61.52-.6.78.07,1.89.22,3.77.37,5.65.02.25.26.49.45.83.52-.14,1.04-.28,1.66-.45Zm6.45-1.97c1.24.22,1.75-.19,1.79-.94.09-1.78,0-3.57-.67-5.4-.7.2-1.29.37-2.06.6.33,2.02.63,3.86.94,5.74Zm-15.6,2.77c.61.22,1.23.17,1.21-.38-.06-2.26-.25-4.52-.44-6.77-.01-.18-.47-.51-.58-.46-.29.15-.71.43-.73.69-.16,2.35-.2,4.7.52,6.92Zm11.42-1.49c1.01.14,1.58-.11,1.51-.8-.19-1.78-.5-3.55-.82-5.31-.03-.18-.48-.46-.65-.41-.3.09-.76.38-.77.61-.07,1.98.11,3.94.73,5.91Zm-6.54-1.07s.08-.01.12-.02c-.24-1.49-.46-2.98-.74-4.47-.03-.15-.43-.27-.68-.31-.11-.02-.37.21-.37.32.05,2.17.1,4.33.23,6.5.01.18.55.42.87.47.16.02.52-.31.54-.51.07-.65.03-1.32.03-1.98Zm-7.78,2.21c.34-1.25.47-5.92.2-7.64-.03-.22-.33-.39-.56-.64-.23.26-.57.47-.56.67.07,2.38.17,4.76.31,7.13,0,.17.38.31.62.49Zm23.23-9.45c-.63-.18-1.19-.06-1.18.5.03,1.76.14,3.52.45,5.22.82.16,1.29-.15,1.3-.81.03-1.68.09-3.37-.57-4.91Zm-26.53,8.2c.4-3.04.3-5.84-.19-7.57-.88.24-1.1.4-1.04.88.23,1.68.47,3.36.74,5.03.07.43.25.84.49,1.65Z"/>
  <path class="cls-1" d="m32.43,9.51c-.15-.34-.53-.76-.46-1.09.18-.87.76-1.53,1.57-1.92.21-.1.6-.04.79.1.19.14.35.51.31.74-.15.89-.69,1.55-1.45,2.02-.15.09-.36.08-.75.16Z"/>
  <path class="cls-1" d="m36.39,14.25c-.2.41-.26.79-.45.88-.76.35-1.55.66-2.36.85-.2.05-.6-.39-.75-.68-.08-.16.1-.63.28-.71.77-.34,1.56-.65,2.37-.84.24-.06.58.3.91.49Z"/>
  <path class="cls-1" d="m28.73,3.17c-.16.44-.28.89-.48,1.31-.37.8-1.05,1.19-1.5.89-.46-.31-.58-1.05-.2-1.8.21-.41.51-.8.85-1.09.16-.13.57-.11.78,0,.22.11.34.42.54.69Z"/>
  <path class="cls-1" d="m7.98,8.03c.59.47,1.05.77,1.41,1.15.33.36.43.82.06,1.25-.38.44-.88.38-1.23.06-.39-.35-.77-.82-.92-1.31-.08-.25.37-.66.67-1.16Z"/>
  <path class="cls-1" d="m6.31,12.86c-.15.1-.36.37-.58.38-.9.05-1.78-.61-1.84-1.43-.02-.25.39-.73.65-.76.88-.11,1.68.56,1.86,1.42.02.09-.03.19-.08.39Z"/>
  <path class="cls-1" d="m2.33,18.1c-.24.13-.52.41-.81.42-.93.04-1.66-.56-1.5-1.21.07-.27.54-.66.74-.62.5.11.97.42,1.41.7.1.07.08.34.16.71Z"/>
  <path class="cls-2" d="m35.31,35.34c.52,2.86-.09,5.78-.37,8.88-.66.29-1.31.68-2.01.88-7,1.98-14.11,2.54-21.33,1.45-.47-.07-.94-.19-1.39-.33-1.69-.52-2-.86-2.02-2.64-.02-1.8-.21-3.61.03-5.49.72,0,1.3-.09,1.83.01,5.49,1.05,10.87.37,16.2-1.04,2.13-.56,4.25-1.16,6.38-1.7.82-.21,1.65-.56,2.68-.02Zm-15.76,9.06c-.42-.6-.76-1.17-1.2-1.66-.12-.14-.58-.12-.79,0-.21.12-.3.44-.42.69-.04.08-.03.19,0,.28.26,1.44,1.44,2.45,2.79,2.38,1.35-.07,2.84-1.39,2.95-2.69.02-.22-.22-.55-.42-.67-.21-.12-.61-.14-.8-.02-.62.42-1.18.93-2.11,1.69Zm6.01-4.39c-.59-.51-.92-.98-1.36-1.13-.65-.21-1.28.45-1.24,1.13.03.56.56,1.1,1.13.95.45-.12.83-.52,1.47-.96Zm-9.16,2.13c.44-.66.85-1.06.97-1.52.13-.55-.52-1.03-1.12-.98-.62.05-1.18.59-.98,1.13.16.45.63.78,1.14,1.38Z"/>
  <path class="cls-2" d="m19.25,26.12c-.6-.03-1.05-.06-1.45-.08-.09-.33-.23-.54-.18-.66.92-2.11.8-4.24.44-6.47-.69-4.34-1.19-8.71-1.76-13.07-.18-1.33.25-2.46,1.2-3.38.88-.85,2.1-.58,2.53.59.26.71.47,1.47.54,2.22.27,3.05.5,6.1.71,9.15.08,1.24.01,2.49.1,3.73.13,1.81.38,3.55-1.14,5.07-.59.59-.62,1.75-.98,2.92Z"/>
  <path class="cls-2" d="m16.12,21.62c-.08.76.22,1.96-.95,2.27-.93.25-1.51-.64-2.01-1.33-1.38-1.88-2.31-3.94-2.16-6.34.03-.55.18-1.13.4-1.64.39-.9,1.43-1.13,2.12-.46.47.45.9,1,1.18,1.58.87,1.82,1.39,3.74,1.43,5.91Z"/>
  <path class="cls-2" d="m23.58,17.36c.07-.95.1-1.91.22-2.85.07-.56.22-1.13.41-1.66.21-.59.71-.99,1.29-.95.41.03.91.34,1.17.68.33.44.58,1.01.67,1.55.41,2.49.09,4.95-.56,7.36-.16.6-.62.96-1.27.94-.61-.02-1.14-.27-1.37-.86-.21-.53-.39-1.08-.44-1.64-.07-.85-.02-1.71-.02-2.57h-.11Z"/>
  <path class="cls-2" d="m10.86,23.85c-.01,1.44-.7,1.9-1.35,1.49-1.86-1.19-3.01-2.91-3.33-5.08-.08-.57.28-1.27.57-1.83.28-.54,1.14-.61,1.47-.15,1.32,1.88,2.57,3.79,2.64,5.57Z"/>
  <path class="cls-2" d="m22.34,23.64c.53.24,1.1.54,1.71.77,1.96.75,2.76.52,4.24-1.13.19-.21.38-.42.58-.62.06-.06.16-.09.32-.18,1.28.1,2.25.68,2.67,2.03-2.09,1.12-6.46,2.12-8.32,1.93-.7-.07-1.33-.31-1.66-.95-.33-.64-.32-1.28.47-1.85Z"/>
  <path class="cls-2" d="m23.14,35.64c-.62.17-1.14.31-1.66.45-.19-.34-.43-.58-.45-.83-.16-1.88-.3-3.76-.37-5.65-.01-.26.33-.67.6-.78.47-.18.95,0,1.09.56.5,2.02.65,4.08.79,6.25Z"/>
  <path class="cls-2" d="m29.59,33.67c-.31-1.88-.61-3.72-.94-5.74.77-.22,1.36-.39,2.06-.6.67,1.83.76,3.61.67,5.4-.04.75-.55,1.16-1.79.94Z"/>
  <path class="cls-2" d="m13.99,36.44c-.73-2.22-.68-4.57-.52-6.92.02-.26.43-.54.73-.69.1-.05.56.28.58.46.19,2.25.37,4.51.44,6.77.02.56-.61.6-1.21.38Z"/>
  <path class="cls-2" d="m25.41,34.94c-.61-1.97-.8-3.93-.73-5.91,0-.22.47-.52.77-.61.17-.05.61.23.65.41.32,1.76.63,3.53.82,5.31.07.69-.5.94-1.51.8Z"/>
  <path class="cls-2" d="m18.87,33.87c0,.66.04,1.33-.03,1.98-.02.2-.38.53-.54.51-.32-.05-.86-.28-.87-.47-.13-2.16-.18-4.33-.23-6.5,0-.11.26-.34.37-.32.24.04.65.16.68.31.28,1.48.5,2.98.74,4.47-.04,0-.08.01-.12.02Z"/>
  <path class="cls-2" d="m11.09,36.08c-.23-.18-.61-.32-.62-.49-.14-2.38-.24-4.75-.31-7.13,0-.2.33-.41.56-.67.22.25.52.43.56.64.28,1.72.14,6.4-.2,7.64Z"/>
  <path class="cls-2" d="m34.32,26.63c.66,1.54.6,3.24.57,4.91-.01.66-.49.96-1.3.81-.31-1.7-.42-3.46-.45-5.22,0-.55.55-.67,1.18-.5Z"/>
  <path class="cls-2" d="m7.79,34.83c-.24-.81-.42-1.22-.49-1.65-.27-1.67-.52-3.35-.74-5.03-.06-.48.16-.64,1.04-.88.49,1.73.59,4.53.19,7.57Z"/>
  <path class="cls-1" d="m19.55,44.4c.93-.76,1.49-1.27,2.11-1.69.19-.13.58-.1.8.02.21.12.44.45.42.67-.12,1.3-1.6,2.62-2.95,2.69-1.35.07-2.53-.94-2.79-2.38-.02-.09-.03-.2,0-.28.12-.24.22-.57.42-.69.21-.12.66-.14.79,0,.44.49.78,1.06,1.2,1.66Z"/>
  <path class="cls-1" d="m25.56,40.01c-.64.44-1.02.84-1.47.96-.57.14-1.09-.39-1.13-.95-.04-.68.6-1.34,1.24-1.13.44.14.77.62,1.36,1.13Z"/>
  <path class="cls-1" d="m16.4,42.14c-.51-.6-.98-.93-1.14-1.38-.19-.54.37-1.08.98-1.13.61-.05,1.25.44,1.12.98-.11.47-.53.86-.97,1.52Z"/>
</svg>