<?xml version="1.0" encoding="UTF-8"?>
<svg id="Layer_1" data-name="Layer 1" xmlns="http://www.w3.org/2000/svg" viewBox="0 0 42.1 53.39">
  <defs>
    <style>
      .cls-1, .cls-2 {
        stroke-width: 0px;
      }

      .cls-2 {
        fill: #fff;
      }
    </style>
  </defs>
  <path class="cls-1" d="m30.6,41.63c.57.38.78.58,1.03.67.93.32,1.46.97,1.41,1.93-.11,2.29-.25,4.58-.45,6.87-.08.95-.75,1.53-1.64,1.8-.55.16-1.12.33-1.68.34-4.79.09-9.58.39-14.35-.29-1.04-.15-2.06-.42-3.08-.69-1.13-.29-1.72-1.07-2-2.21-.53-2.21-.26-4.39.13-6.56.09-.5.56-.99.97-1.36.49-.44,1.1-.74,1.8-1.2-.16-.61-.3-1.24-.5-1.85-1.27-3.75-1.89-7.6-2.03-11.56-.2-5.65-.54-11.29-.76-16.94-.04-1.04.06-2.11.28-3.13.13-.62.53-1.24.96-1.71.76-.83,1.93-.97,2.89-.37.7.44,1.3,1.02,2.11,1.66.21-.54.38-.96.54-1.38.27-.71.46-1.47.82-2.14.74-1.38,1.77-1.75,3.37-1.29.35.1.69.27,1.03.4.64-.68,1.17-1.38,1.82-1.91,1.57-1.27,3.46-.83,4.24,1.03.36.87.47,1.84.72,2.86.83.14,1.17-.73,1.77-1.07,1.78-.99,3.21-.48,3.73,1.52.26,1.01.34,2.08.34,3.12,0,1.53-.14,3.06-.26,4.59-.36,4.69-.15,9.38-.12,14.29.55-.09.98-.11,1.39-.24.9-.3,1.77-.74,2.69-.98.73-.19,1.52-.28,2.26-.21,1.47.14,2.4,1.47,1.96,2.9-.28.89-.78,1.76-1.35,2.5-2.27,2.97-4.71,5.8-7.52,8.29-.78.69-1.54,1.41-2.52,2.31Zm.94-36.59c-.63.5-1.05.73-1.34,1.07-1.23,1.43-1.87,3.14-2.03,4.99-.24,2.87-.36,5.74-.54,8.61-.05.76-.11,1.53-.26,2.27-.04.2-.44.49-.62.46-.32-.06-.81-.27-.87-.52-.17-.63-.21-1.32-.19-1.98.1-4.41.23-8.82.33-13.23.02-1.14,0-2.3-.15-3.43-.05-.37-.52-.93-.84-.95-.36-.03-.86.36-1.11.71-.33.45-.56,1.02-.67,1.57-.23,1.22-.44,2.46-.5,3.69-.16,3.74-.23,7.48-.38,11.22-.03.75-.19,1.5-.37,2.23-.05.18-.46.37-.69.36-.24-.02-.61-.24-.66-.43-.15-.64-.26-1.32-.25-1.98.08-3.45.19-6.9.31-10.35.05-1.44.12-2.88-.41-4.26-.18-.45-.43-.86-1.23-.74-.18.29-.51.65-.64,1.07-.71,2.3-1.23,4.64-1.15,7.07.08,2.59.22,5.17.32,7.76.02.57.05,1.15,0,1.72-.05.6-.62,1.16-1.15,1.02-.4-.11-.84-.44-1.03-.8-.21-.39-.18-.93-.23-1.4-.34-3.15-.61-6.3-1.02-9.44-.16-1.21-.57-2.4-.96-3.56-.08-.22-.62-.38-.95-.39-.19,0-.52.34-.55.55-.14,1.04-.31,2.1-.26,3.14.33,6.9.63,13.8,1.11,20.68.21,2.97,1.21,5.81,2.26,8.6.42,1.12,1.14,1.67,2.36,1.72,2.78.12,5.55.3,8.32.48.83.06,1.46-.22,2.06-.79,1.53-1.45,3.18-2.79,4.63-4.31,2.32-2.42,4.53-4.94,6.75-7.46.48-.54.75-1.26,1.23-2.11-.6-.12-.98-.33-1.26-.24-1.18.39-2.34.83-3.47,1.32-.93.4-1.7,1.58-2.82,1.03-1.41-.69-.88-2.17-.92-3.36-.17-5.76-.07-11.51.4-17.25.11-1.34.1-2.67-.55-4.34Z"/>
  <path class="cls-1" d="m3.51,26.32c-.44-.43-.84-.63-.95-.94-.45-1.3-1.11-2.4-2.19-3.3-.59-.49-.45-1.27.19-1.71,1.26-.86,2.54-1.7,3.82-2.54.53-.34,1.28-.11,1.37.5.23,1.48.76,2.72,1.98,3.67.42.33.19,1.32-.37,1.45-1.62.36-2.44,1.77-3.86,2.87Zm1.55-4.16c-.66-.51-.98-.79-1.34-1-.05-.03-.47.35-.47.53.01.49.23.95.83.91.25-.02.5-.22.98-.44Z"/>
  <path class="cls-1" d="m41.21,19.57c-.08.2-.14.51-.32.7-.84.9-1.71,1.78-2.59,2.64-.42.41-1.19.32-1.5-.17-.2-.32-.41-.66-.51-1.02-.31-1.07-1.67-1.94-1.09-3.11.62-1.25,1.66-2.29,2.58-3.38.35-.41,1.28-.31,1.53.16.67,1.25,1.28,2.54,1.91,3.82.04.08,0,.19,0,.36Zm-2.94-1.56c-.4.51-.69.74-.77,1.02-.05.18.2.44.32.67.27-.16.67-.26.76-.49.09-.23-.13-.58-.31-1.2Z"/>
  <path class="cls-2" d="m31.54,5.04c.65,1.67.66,3,.55,4.34-.47,5.74-.57,11.5-.4,17.25.03,1.19-.49,2.67.92,3.36,1.12.55,1.89-.63,2.82-1.03,1.14-.49,2.3-.93,3.47-1.32.28-.09.67.11,1.26.24-.48.85-.75,1.57-1.23,2.11-2.21,2.52-4.43,5.04-6.75,7.46-1.46,1.52-3.11,2.85-4.63,4.31-.6.57-1.23.84-2.06.79-2.77-.19-5.55-.37-8.32-.48-1.22-.05-1.94-.61-2.36-1.72-1.04-2.79-2.05-5.63-2.26-8.6-.49-6.89-.78-13.78-1.11-20.68-.05-1.04.12-2.1.26-3.14.03-.22.36-.56.55-.55.33,0,.88.16.95.39.4,1.16.81,2.35.96,3.56.41,3.14.69,6.29,1.02,9.44.05.47.02,1.01.23,1.4.19.36.63.7,1.03.8.53.14,1.1-.41,1.15-1.02.04-.57.02-1.15,0-1.72-.1-2.59-.24-5.17-.32-7.76-.08-2.43.44-4.77,1.15-7.07.13-.42.46-.78.64-1.07.79-.12,1.05.29,1.23.74.54,1.38.46,2.82.41,4.26-.11,3.45-.23,6.9-.31,10.35-.01.66.09,1.33.25,1.98.05.2.42.42.66.43.23.01.64-.18.69-.36.19-.73.34-1.48.37-2.23.14-3.74.21-7.48.38-11.22.05-1.24.27-2.47.5-3.69.1-.55.34-1.12.67-1.57.25-.35.76-.74,1.11-.71.32.03.79.58.84.95.15,1.13.17,2.29.15,3.43-.09,4.41-.23,8.82-.33,13.23-.01.66.02,1.35.19,1.98.07.24.55.46.87.52.18.03.58-.26.62-.46.15-.75.21-1.51.26-2.27.19-2.87.31-5.74.54-8.61.15-1.85.8-3.56,2.03-4.99.29-.34.71-.57,1.34-1.07Zm-10.29,28.76c.5.23.75.36,1.01.45,1.32.45,2.06.22,2.58-.87.33-.69.69-1.53.03-2.12-.8-.71-1.32.21-1.89.62-2.23-.7-2.32-.68-3.56.99-.17.23-.33.47-.48.71-.28.45-.31.9.11,1.26.43.37.89.24,1.28-.09.29-.24.52-.54.91-.95Zm-2.44-3.71c-.53-.54-.83-1.05-1.26-1.22-.62-.25-1.31.41-1.29,1.09.02.57.55,1.21,1.05,1.08.46-.12.85-.53,1.49-.95Zm10.25.5c.1-.57-.33-1.13-.94-1.21-.6-.08-1.15.3-1.27.89-.12.54.28,1.25.77,1.38.62.16,1.33-.36,1.45-1.06Z"/>
  <path class="cls-2" d="m5.07,22.16c-.48.23-.72.43-.98.44-.6.04-.82-.42-.83-.91,0-.18.42-.56.47-.53.36.2.68.49,1.34,1Z"/>
  <path class="cls-2" d="m38.27,18.01c.18.62.4.97.31,1.2-.09.23-.49.33-.76.49-.12-.23-.37-.49-.32-.67.08-.29.37-.51.77-1.02Z"/>
  <path class="cls-1" d="m21.24,33.8c-.38.41-.62.71-.91.95-.39.32-.85.45-1.28.09-.43-.36-.4-.82-.11-1.26.15-.24.31-.48.48-.71,1.24-1.66,1.32-1.69,3.56-.99.57-.4,1.09-1.33,1.89-.62.66.59.3,1.43-.03,2.12-.53,1.09-1.26,1.32-2.58.87-.26-.09-.51-.22-1.01-.45Z"/>
  <path class="cls-1" d="m18.8,30.09c-.63.42-1.02.83-1.49.95-.51.13-1.03-.51-1.05-1.08-.02-.68.67-1.34,1.29-1.09.43.18.72.68,1.26,1.22Z"/>
  <path class="cls-1" d="m29.05,30.59c-.12.7-.83,1.22-1.45,1.06-.49-.13-.88-.84-.77-1.38.13-.59.67-.97,1.27-.89.61.08,1.04.64.94,1.21Z"/>
</svg>