<?xml version="1.0" encoding="UTF-8"?>
<svg id="Layer_1" data-name="Layer 1" xmlns="http://www.w3.org/2000/svg" viewBox="0 0 43.1 51.67">
  <defs>
    <style>
      .cls-1, .cls-2 {
        stroke-width: 0px;
      }

      .cls-2 {
        fill: #fff;
      }
    </style>
  </defs>
  <path class="cls-1" d="m36.16,16.81c1.23,1.18,2.02,2.23,1.51,3.75-.1.31.06.74.17,1.08.09.26.35.47.44.74.18.54.59,1.25.4,1.63-1.05,2.06.53,4.14-.18,6.17-.33.95-.99,1.65-1.82,2.16-1.14.7-2.31,1.37-3.51,1.96-5.94,2.9-11.8,5.98-18.01,8.3-.26.1-.49.28-.89.52-.04,1.06-.04,2.21-.15,3.34-.11,1.14-.19,2.31-.53,3.39-.64,2.04-2.58,2.46-3.98.85-.74-.85-1.28-1.9-1.83-2.9-.45-.83-.79-1.72-1.21-2.67-1.05.12-1.98.26-2.91.3-.17,0-.4-.35-.51-.59-.06-.13.03-.44.15-.51.73-.42,1.48-.78,2.31-1.22-.5-2.21-1.02-4.34-1.47-6.48-.45-2.15-.83-4.31-1.26-6.56-1.01-.05-1.92-.1-2.88-.14-.03-1.79,1.74-1.36,2.48-2.38.04-.49.06-1.15.15-1.8.1-.66.19-1.34.42-1.96.55-1.47,1.93-1.99,3.25-1.21.73.43,1.35,1.03,2.15,1.65.44-.41.89-.75,1.24-1.16.37-.44.68-.93.96-1.43,2.79-5.07,3.82-4.97,3.77-12.68,0-.66.06-1.36.25-1.99.36-1.18,1.16-2.01,2.42-2.19,1.17-.17,2.1.43,2.63,1.4.55.99,1,2.08,1.28,3.18.4,1.57.61,3.19.94,4.97.58-.1,1.13-.12,1.62-.3,3.6-1.32,7.18-2.7,10.79-3.99,1.35-.48,2.76-.79,4.16-1.12,1.06-.26,2.1-.11,3.1.32,1.49.64,1.97,2.32.9,3.55-.61.71-1.42,1.28-2.23,1.77-1.22.75-2.51,1.38-4.13,2.25ZM5.22,28.69c.55,5.22,2.12,11.66,3.38,13.88,1.26.22,2.39-.41,3.55-.78,7.88-2.53,15.13-6.5,22.5-10.16.75-.37,1.44-.97,1.99-1.6.52-.59.65-1.36-.18-2.13-.39.18-.79.42-1.23.57-1.99.68-3.98,1.37-6,1.96-.61.18-1.32.09-1.98.07-.13,0-.36-.24-.36-.37,0-.25.04-.66.2-.74.5-.25,1.06-.39,1.61-.56,1.91-.61,3.85-1.14,5.73-1.85,1.18-.45,2.15-1.29,2.52-2.59.17-.6-.02-1.16-.47-1.57-.39-.36-.87-.33-1.33-.08-.51.27-1,.58-1.53.79-2.14.83-4.28,1.66-6.45,2.43-.73.26-1.39-.08-1.4-.54-.01-.61.45-.81.88-.99.62-.26,1.28-.41,1.9-.66,1.51-.6,3.04-1.17,4.51-1.86.86-.4,1.66-.96,2.41-1.53.25-.19.49-.73.39-.97-.15-.38-.55-.78-.94-.91-.52-.18-1.14-.22-1.68-.13-.75.12-1.49.37-2.19.66-1.06.45-2.07.99-3.12,1.47-.69.32-1.39.67-2.11.88-.29.08-.69-.18-1.04-.28.11-.33.14-.74.35-.98.24-.27.64-.41.98-.57,2.42-1.15,4.85-2.28,7.27-3.44,2.07-.99,4.15-1.99,6.18-3.05.74-.38,1.59-.76,1.66-1.79-.39-.73-1.1-.83-1.75-.72-1.31.22-2.65.44-3.9.89-4.32,1.56-8.61,3.22-12.91,4.84-.68.26-1.34.81-2.28.15-.05-.35-.13-.81-.19-1.27-.18-1.43-.26-2.87-.56-4.27-.26-1.21-.7-2.38-1.19-3.52-.15-.35-.7-.71-1.1-.75-.67-.07-.98.54-1.12,1.1-.14.55-.18,1.13-.2,1.7-.04.96-.01,1.92-.03,2.88-.05,2.64-.68,5.12-2.12,7.36-.52.81-.99,1.64-1.48,2.47-1.28,2.2-2.99,3.97-5.19,5.26-.65.38-1.27.83-1.99,1.32Zm7.02,15.21c-1.35-.06-2.29.23-3.18.88.22,1.23.67,2.27,1.39,3.17.26.32.7.48,1.12.75,1.02-1.55.7-3.06.67-4.8Zm-7.21-18.99c0,.53-.45,1.04.28,1.41.1.05.38-.09.47-.21.5-.73,0-.97-.74-1.2Z"/>
  <path class="cls-1" d="m29.11,2.77c.41-.1.86-.21,1.31-.33.9-.24,1.7.03,2.48.44,1.11.58,1.46,1.44.94,2.63-.3.69-.71,1.37-1.21,1.92-1.46,1.56-3.28,2.64-5.28,3.36-1.65.59-2.8.03-3.44-1.58-.88-2.21-.77-4.5-.49-6.79.06-.45.31-.91.56-1.31.83-1.27,2.38-1.48,3.45-.44.61.59,1.07,1.33,1.68,2.1Z"/>
  <path class="cls-2" d="m5.22,28.69c.73-.48,1.34-.93,1.99-1.32,2.2-1.29,3.91-3.07,5.19-5.26.48-.83.96-1.66,1.48-2.47,1.44-2.25,2.07-4.72,2.12-7.36.02-.96,0-1.92.03-2.88.02-.57.06-1.15.2-1.7.14-.56.45-1.17,1.12-1.1.4.04.95.4,1.1.75.49,1.13.94,2.31,1.19,3.52.3,1.4.38,2.85.56,4.27.06.46.14.92.19,1.27.94.66,1.6.11,2.28-.15,4.3-1.62,8.59-3.28,12.91-4.84,1.25-.45,2.59-.67,3.9-.89.65-.11,1.36-.01,1.75.72-.07,1.03-.92,1.41-1.66,1.79-2.04,1.06-4.11,2.05-6.18,3.05-2.42,1.16-4.85,2.29-7.27,3.44-.34.16-.74.3-.98.57-.21.24-.24.65-.35.98.35.1.74.37,1.04.28.73-.21,1.42-.55,2.11-.88,1.04-.48,2.06-1.03,3.12-1.47.7-.29,1.44-.54,2.19-.66.55-.09,1.17-.05,1.68.13.38.13.78.54.94.91.1.24-.14.78-.39.97-.76.57-1.56,1.13-2.41,1.53-1.47.69-3,1.26-4.51,1.86-.62.25-1.28.4-1.9.66-.43.18-.89.38-.88.99,0,.46.67.8,1.4.54,2.16-.77,4.31-1.59,6.45-2.43.53-.21,1.02-.52,1.53-.79.46-.25.93-.28,1.33.08.45.41.64.98.47,1.57-.37,1.3-1.34,2.14-2.52,2.59-1.88.71-3.82,1.24-5.73,1.85-.54.17-1.1.31-1.61.56-.16.08-.2.49-.2.74,0,.13.23.37.36.37.66.02,1.36.11,1.98-.07,2.02-.59,4-1.29,6-1.96.44-.15.84-.39,1.23-.57.83.77.7,1.54.18,2.13-.55.63-1.24,1.23-1.99,1.6-7.37,3.67-14.61,7.64-22.5,10.16-1.16.37-2.29,1-3.55.78-1.26-2.22-2.83-8.65-3.38-13.88Zm15.09,1.1c-.1-.24-.11-.37-.17-.41-.32-.19-.64-.37-.97-.54-1.25-.64-1.34-.93-.66-2.17.14-.25.34-.45.46-.7.15-.31-.23-.82-.58-.79-.27.02-.59.03-.81.18-1.12.74-1.55,2.02-1.14,3.24.42,1.25,1.79,2.09,3.15,1.84.28-.05.5-.44.71-.63Zm3.15,1.03c.18-.27.6-.65.71-1.11.14-.53-.48-.99-1.09-.94-.61.05-1.02.51-.99,1.11.03.58.54,1.04,1.37.94Zm-1.1-6.57c-.18-.18-.42-.62-.78-.76-.54-.22-1.14.28-1.19.87-.05.55.23.91.74,1.04.57.15,1.13-.29,1.22-1.15Z"/>
  <path class="cls-1" d="m20.31,29.79c-.21.19-.43.58-.71.63-1.37.25-2.73-.59-3.15-1.84-.41-1.22.02-2.5,1.14-3.24.22-.14.53-.15.81-.18.34-.03.72.49.58.79-.12.25-.33.46-.46.7-.68,1.24-.59,1.53.66,2.17.33.17.66.35.97.54.07.04.07.17.17.41Z"/>
  <path class="cls-1" d="m23.46,30.82c-.82.09-1.34-.36-1.37-.94-.03-.6.38-1.06.99-1.11.61-.05,1.23.41,1.09.94-.12.46-.53.84-.71,1.11Z"/>
  <path class="cls-1" d="m22.36,24.25c-.09.86-.65,1.3-1.22,1.15-.52-.14-.79-.49-.74-1.04.05-.59.64-1.09,1.19-.87.36.14.6.58.78.76Z"/>
</svg>