<?xml version="1.0" encoding="UTF-8"?>
<svg id="Layer_1" data-name="Layer 1" xmlns="http://www.w3.org/2000/svg" viewBox="0 0 31.33 51.12">
  <defs>
    <style>
      .cls-1, .cls-2 {
        stroke-width: 0px;
      }

      .cls-2 {
        fill: #fff;
      }
    </style>
  </defs>
  <path class="cls-1" d="m4.49,41.06c-.13-1.99-.75-3.51-1.43-4.98C1.12,31.91.36,27.53.35,22.95.34,18.93.05,14.9,0,10.88c-.03-2.29.15-4.59.32-6.89.06-.75.29-1.52.62-2.2C1.86-.14,4.11-.58,5.75.81c.83.71,1.36,1.62,1.6,2.67.27,1.21.47,2.44.71,3.67.99.33,1.97.65,3.15,1.04.85-.57,1.72-1.78,3.05-1.45,1.08.27,2.06.91,3.2,1.44.1-.06.34-.2.58-.34,1.81-1.06,3.09-.9,4.15.77.6.95.95,2.08,1.31,3.16.27.8.38,1.66.59,2.65.45-.31.75-.51,1.05-.71.48-.32.93-.68,1.44-.94,1.26-.64,2.59-.91,3.77.09,1.06.9,1.17,2.14.78,3.43-.16.55-.28,1.13-.53,1.64-1.15,2.34-1.83,4.84-2.4,7.37-.49,2.17-1.26,4.22-2.31,6.17-.36.68-.69,1.37-1.06,2.04-1.35,2.45-1.77,5.04-1.22,7.83.19.17.37.44.61.52,2.91.94,3.14,3.57,2.72,6.79-.06.43-.65.99-1.11,1.14-1.18.38-2.41.66-3.63.82-4.97.66-9.94.71-14.89-.1-.75-.12-1.48-.37-2.22-.56-1.5-.39-2.18-1.45-2.35-2.92-.03-.29-.06-.57-.09-.86-.21-1.98-.1-3.86,1.86-5.12Zm15.01-16.24c-.41.77-.86,1.61-1.3,2.45-.22.42-.38.91-.68,1.26-.21.24-.66.46-.94.4-.57-.13-.64-.67-.47-1.15.26-.72.59-1.41.91-2.11.31-.69.65-1.37.99-2.09-.29-.32-.54-.59-.77-.84q-2.58,1.35-5.19,0c-.95.86-2.13,1.1-3.38.52-1.3-.61-2.01-1.73-2.44-3.05-.12-.36-.18-.75-.26-1.12-.48-2.09-.51-4.19-.1-6.28.46-2.39.37-4.78.14-7.16-.11-1.14-.34-2.28-1.12-3.21-.79-.94-2.1-.73-2.51.44-.19.54-.32,1.12-.35,1.68-.12,2.29-.29,4.59-.25,6.89.07,4.31.34,8.62.41,12.94.05,3.41.66,6.66,2.02,9.79,1.15,2.64,2.04,5.37,2.66,8.19.14.64.42,1.25.61,1.8,3.61.94,9.08.32,13.25-.25.43-.06.83-.33,1.4-.56-1.25-4.68-.15-8.82,2.23-12.74,1.15-1.9,1.78-4.02,2.28-6.18.59-2.52,1.26-5.02,2.38-7.37.28-.59.41-1.27.51-1.93.09-.57-.54-1.15-1.11-1.02-.55.12-1.11.3-1.58.59-.86.52-1.29,1.4-1.59,2.32-.48,1.45-.91,2.93-1.4,4.38-.56,1.65-1.55,2.85-3.39,3.13-.28.04-.54.17-.95.3Zm2.78-7.71s.06-.01.1-.02c-.21-1.7-.35-3.41-.65-5.09-.15-.82-.55-1.62-.96-2.35-.47-.83-1.37-.78-1.8.02-.18.33-.37.68-.47,1.04-.79,2.99-1.02,6.01-.3,9.05.11.46.23.93.44,1.35.39.77.84,1.6,1.87,1.48.99-.11,1.39-.93,1.63-1.78.13-.45.13-.94.15-1.42.02-.76,0-1.53,0-2.29Zm-10.4-3.2c.27,1.88.47,3.59.78,5.29.12.64.42,1.28.73,1.86.27.5.73,1.03,1.35.8.38-.14.79-.61.89-1,.24-.92.35-1.88.41-2.83.12-1.91.15-3.82.28-5.72.07-1-.11-1.91-.65-2.74-.37-.57-.89-1.05-1.63-1.01-.77.04-1.22.63-1.38,1.28-.34,1.38-.55,2.8-.79,4.07Zm-1.05,5.45c-.06,0-.12,0-.18,0-.14-2.67-.27-5.34-.45-8-.03-.46-.22-.92-.44-1.34-.11-.21-.44-.4-.67-.4-.23,0-.59.2-.66.39-1.27,3.32-1.52,6.69-.35,10.08.17.5.63.94,1.03,1.33.43.41,1.26.17,1.4-.38.14-.55.21-1.12.32-1.68Z"/>
  <path class="cls-2" d="m19.5,24.83c.41-.13.67-.26.95-.3,1.84-.27,2.83-1.48,3.39-3.13.49-1.45.92-2.92,1.4-4.38.31-.92.73-1.8,1.59-2.32.47-.29,1.04-.47,1.58-.59.57-.12,1.2.46,1.11,1.02-.1.65-.23,1.34-.51,1.93-1.12,2.35-1.8,4.85-2.38,7.37-.5,2.16-1.13,4.28-2.28,6.18-2.38,3.92-3.49,8.06-2.23,12.74-.57.23-.97.5-1.4.56-4.17.58-9.64,1.19-13.25.25-.19-.55-.47-1.16-.61-1.8-.62-2.82-1.51-5.55-2.66-8.19-1.36-3.12-1.97-6.38-2.02-9.79-.06-4.31-.33-8.62-.41-12.94-.04-2.29.13-4.59.25-6.89.03-.57.16-1.15.35-1.68.41-1.16,1.72-1.38,2.51-.44.78.93,1.02,2.07,1.12,3.21.23,2.39.32,4.78-.14,7.16-.41,2.09-.38,4.2.1,6.28.09.37.14.76.26,1.12.43,1.32,1.14,2.45,2.44,3.05,1.25.58,2.43.34,3.38-.52q2.61,1.34,5.19,0c.23.25.48.52.77.84-.34.73-.68,1.41-.99,2.09-.32.7-.65,1.39-.91,2.11-.17.48-.1,1.03.47,1.15.28.06.73-.16.94-.4.31-.35.46-.83.68-1.26.44-.84.89-1.68,1.3-2.45Zm-4.31,13.28c-1.37-.38-1.32-1.46-1.9-2.03-.22-.21-.67-.28-1-.24-.18.02-.4.39-.45.64-.21.92.2,1.66.77,2.34.96,1.15,2.12,1.51,3.26,1.03,1.29-.54,1.98-1.72,1.86-3.19-.04-.52-.33-.96-.84-.97-.29,0-.68.32-.85.6-.33.54-.55,1.16-.85,1.83Zm-2.13-5.34c-.02-.7-.6-1.27-1.27-1.24-.56.02-1.04.52-1.07,1.11-.04.69.52,1.22,1.27,1.2.63-.02,1.09-.47,1.07-1.07Zm5.48-.55c-.63-.39-1.03-.78-1.49-.87-.58-.11-1.04.46-1.04,1.05,0,.68.73,1.36,1.29,1.09.43-.2.71-.71,1.23-1.27Z"/>
  <path class="cls-2" d="m22.28,17.11c0,.76.02,1.53,0,2.29-.01.47-.02.97-.15,1.42-.24.84-.64,1.67-1.63,1.78-1.04.11-1.49-.71-1.87-1.48-.21-.42-.34-.89-.44-1.35-.71-3.04-.49-6.06.3-9.05.1-.36.29-.71.47-1.04.43-.8,1.33-.85,1.8-.02.42.73.81,1.53.96,2.35.31,1.68.45,3.39.65,5.09-.03,0-.06.01-.1.02Z"/>
  <path class="cls-2" d="m11.88,13.91c.24-1.27.45-2.69.79-4.07.16-.65.6-1.24,1.38-1.28.74-.04,1.26.44,1.63,1.01.54.82.72,1.74.65,2.74-.13,1.91-.15,3.82-.28,5.72-.06.95-.18,1.91-.41,2.83-.1.4-.51.86-.89,1-.63.23-1.08-.3-1.35-.8-.32-.58-.62-1.21-.73-1.86-.31-1.69-.51-3.4-.78-5.29Z"/>
  <path class="cls-2" d="m10.83,19.36c-.1.56-.18,1.13-.32,1.68-.14.55-.97.79-1.4.38-.4-.39-.86-.82-1.03-1.33-1.16-3.39-.92-6.77.35-10.08.08-.2.44-.4.66-.39.23,0,.56.2.67.4.22.41.41.88.44,1.34.18,2.67.31,5.34.45,8,.06,0,.12,0,.18,0Z"/>
  <path class="cls-1" d="m15.19,38.11c.3-.68.52-1.29.85-1.83.17-.28.57-.6.85-.6.51,0,.8.45.84.97.12,1.47-.58,2.65-1.86,3.19-1.14.48-2.3.12-3.26-1.03-.56-.67-.97-1.42-.77-2.34.06-.25.27-.61.45-.64.33-.04.78.03,1,.24.58.57.53,1.65,1.9,2.03Z"/>
  <path class="cls-1" d="m13.05,32.77c.01.59-.44,1.05-1.07,1.07-.74.02-1.3-.51-1.27-1.2.03-.59.51-1.09,1.07-1.11.67-.03,1.25.54,1.27,1.24Z"/>
  <path class="cls-1" d="m18.53,32.22c-.52.56-.81,1.06-1.23,1.27-.56.27-1.28-.41-1.29-1.09,0-.59.46-1.16,1.04-1.05.46.09.86.48,1.49.87Z"/>
</svg>