<?xml version="1.0" encoding="UTF-8"?>
<svg id="Layer_1" data-name="Layer 1" xmlns="http://www.w3.org/2000/svg" viewBox="0 0 31.8 53.27">
  <defs>
    <style>
      .cls-1 {
        stroke-width: 0px;
      }
    </style>
  </defs>
  <path class="cls-1" d="m24.03,27.13c1.31-.5,2.45-1.01,3.63-1.36,3.13-.92,4.57.44,4.02,3.7-.31,1.84-1.02,3.52-2.22,4.93-1.24,1.46-2.6,2.81-3.92,4.2-.53.55-1.09,1.08-1.67,1.59-1.16,1.02-1.66,2.26-1.61,3.82.07,2.3.02,4.6,0,6.91,0,.57,0,1.17-.18,1.7-.09.29-.52.65-.8.66-.26.01-.65-.34-.8-.63-.16-.32-.16-.75-.16-1.13,0-2.69.06-5.37,0-8.06-.04-1.87.67-3.33,2.01-4.57,1.27-1.17,2.53-2.35,3.73-3.59,1.34-1.38,2.6-2.83,3.25-4.69.34-.99.68-1.99.07-3.06-1.73.06-3.17.84-4.57,1.64-2.04,1.17-3.23,1.45-3.21-1.83.04-5.76-.31-11.51-1.14-17.21-.12-.85-.28-1.71-.52-2.53-.16-.54-.42-1.08-.74-1.53-.66-.92-1.87-.78-2.28.25-.21.52-.36,1.1-.38,1.66-.03,1.05,0,2.11.11,3.16.27,2.96.6,5.91.89,8.87.05.57.09,1.16-.03,1.71-.07.31-.42.72-.71.77-.26.05-.69-.25-.87-.52-.2-.29-.25-.72-.29-1.09-.36-3.05-.67-6.1-1.06-9.14-.3-2.37-.62-4.75-1.09-7.09-.16-.79-.73-1.53-1.21-2.22-.34-.48-1.25-.25-1.39.31-.14.55-.3,1.13-.27,1.69.11,1.91.2,3.83.49,5.71.52,3.41,1.19,6.8,1.76,10.2.19,1.1-.19,1.86-.83,1.84-.88-.02-1.07-.75-1.2-1.39-.64-3.29-1.22-6.6-1.86-9.89-.16-.83-.42-1.67-.81-2.42-.16-.31-.79-.51-1.19-.5-.26,0-.69.47-.72.76-.13,1.04-.28,2.11-.14,3.13.43,2.94,1,5.86,1.5,8.78.13.75.22,1.51.24,2.26,0,.2-.32.57-.5.58-.33.01-.88-.1-.98-.32-.35-.78-.61-1.61-.79-2.45-.44-2.06-.79-4.14-1.21-6.21-.09-.44-.29-.85-.46-1.36-1.05.1-1.54.68-1.68,1.45-.17.94-.19,1.91-.18,2.86.03,3.76.86,7.42,1.42,11.12.09.57.29,1.13.29,1.7,0,2.16.55,4.22,1.49,6.1,2.33,4.67,2.27,9.64,2.09,14.64-.01.35-.2.72-.36,1.05-.21.4-1.04.38-1.2-.04-.16-.43-.31-.9-.32-1.36-.04-1.53-.02-3.07-.01-4.6.02-2.62-.44-5.15-1.52-7.56-1.39-3.09-2.13-6.34-2.48-9.71-.34-3.34-.88-6.65-1.31-9.98C.03,18.1,0,17.33,0,16.56c.01-2.69.68-4.97,3.68-5.68.18-.85.33-1.6.49-2.34.35-1.56,1.22-2.57,2.9-2.73.37-.03.74-.11,1.19-.18.22-1.17.35-2.31.66-3.4C9.56-.05,11.91-.74,13.62.91c.86.84,1.42,2,2.12,3.01.09-.01.19,0,.28-.04,3.04-1.01,4.76-.3,5.75,2.74.61,1.89.87,3.93,1.05,5.92.33,3.72.48,7.46.73,11.2.07,1.03-.11,2.11.49,3.38Z"/>
  <path class="cls-1" d="m9.44,30.25c.43-.76.7-1.34,1.07-1.84.12-.17.52-.25.74-.19.23.06.51.31.58.53.41,1.37-.43,2.95-1.77,3.42-1.06.37-2.18-.11-2.81-1.29-.22-.4-.39-.88-.4-1.33,0-.31.24-.76.5-.9.25-.13.76-.04.98.16.39.33.65.82,1.1,1.44Z"/>
  <path class="cls-1" d="m16.72,29c.55-.73.95-1.34,1.44-1.88.14-.16.54-.22.76-.14.22.08.48.36.52.58.26,1.55-.88,3.13-2.38,3.34-1.51.22-2.69-.78-2.87-2.46-.05-.5.12-1.01.66-1.1.3-.05.72.14.96.36.33.31.54.74.91,1.29Z"/>
</svg>