<svg width="111" height="128" viewBox="0 0 111 128" fill="none" xmlns="http://www.w3.org/2000/svg">
<ellipse cx="50.0098" cy="122.5" rx="20" ry="5.5" fill="black"/>
<path d="M33.083 65.8898C34.9833 62.7483 37.724 61.1719 41.305 61.1609C41.7005 59.7769 41.0414 58.4423 40.8766 57.1076C40.4811 54.1418 39.8221 51.1924 39.6243 48.2101C39.476 45.8869 39.7232 43.4812 40.1022 41.1745C40.2999 39.9881 40.9919 38.7853 41.7334 37.8296C43.4799 35.5723 46.4128 35.3417 48.3077 37.4672C49.6423 38.9666 50.5485 40.8614 51.4877 42.6738C52.0644 43.7778 52.328 45.0465 52.7235 46.2493C53.1025 47.4027 53.4485 48.5726 54.0416 50.5169C54.6513 48.7538 54.9808 47.7323 55.3598 46.7601C56.2331 44.5687 56.991 42.3114 58.095 40.2353C58.7376 39.0325 59.825 37.945 60.9455 37.1706C63.2522 35.5723 66.284 36.3797 67.2232 39.016C68.014 41.1909 68.5084 43.6295 68.4589 45.9363C68.3436 50.5004 67.8987 55.0809 67.3056 59.6121C66.7618 63.8302 65.8391 67.9989 65.1141 72.2005C64.8834 73.5681 64.7681 74.9521 64.5869 76.4021C66.0863 77.0776 67.4044 77.572 68.6402 78.2475C72.7429 80.5049 74.819 83.9485 74.6378 88.7103C74.5389 91.2972 73.8798 93.7358 72.6441 95.9437C71.3259 98.267 69.9913 100.623 68.3106 102.699C64.7022 107.197 62.692 112.256 62.7414 117.957C62.7744 120.824 61.5057 122.175 59.1989 123.394C52.6576 126.854 46.1986 126.69 39.6738 123.46C38.2567 122.768 37.367 121.829 37.4659 120.181C37.8613 113.277 35.6699 107.214 31.9626 101.447C29.3757 97.4102 28.4036 92.6977 27.761 87.9853C27.3161 84.7064 26.8383 81.444 25.4542 78.3628C24.8281 76.9458 24.5645 75.3146 24.4162 73.7658C23.9054 68.7404 26.344 66.0711 31.4024 65.9393C31.8637 65.9393 32.3415 65.9393 33.0501 65.9393L33.083 65.8898ZM58.9847 119.621C59.2154 117.874 59.4131 116.474 59.5944 115.073C60.2535 109.949 62.0659 105.336 65.3448 101.282C66.63 99.684 67.8328 98.0033 68.805 96.2074C69.7771 94.4279 70.6668 92.5165 71.1447 90.5557C72.3475 85.6621 70.0572 81.856 65.246 80.2412C61.1597 78.8736 57.1558 79.4668 53.1848 80.7849C52.74 80.9332 52.2127 81.1639 51.9985 81.5264C51.6031 82.169 51.1252 82.9929 51.2406 83.619C51.3559 84.2286 52.1303 85.0854 52.7235 85.1843C54.2394 85.415 55.8376 85.3491 57.3864 85.2832C58.9517 85.2008 60.5171 84.8713 62.0824 84.8383C62.5272 84.8383 63.2852 85.4315 63.3676 85.8599C63.4664 86.3047 63.0216 87.211 62.6261 87.3428C61.1432 87.8371 59.5944 88.1666 58.0456 88.4467C54.3547 89.0893 50.7957 88.974 48.11 86.2718C46.1492 86.3542 44.4356 86.4365 42.6561 86.5189C39.0477 91.1489 38.3886 91.3467 31.6989 89.699C31.7978 90.7041 31.6989 91.6762 32.012 92.5001C33.116 95.4329 34.0057 98.5635 35.6369 101.183C38.817 106.275 40.6789 111.646 40.7612 117.66C40.7612 118.567 41.0743 119.473 41.2226 120.264C47.352 123.938 53.086 123.279 58.9683 119.588L58.9847 119.621ZM63.9278 39.8728C62.2471 39.7575 61.5057 40.6801 61.0443 41.6523C60.0557 43.7943 59.0506 45.9693 58.4245 48.2266C56.9416 53.5651 56.1178 59.0354 55.8377 64.5882C55.7882 65.6921 55.7223 66.796 55.4752 67.867C55.2939 68.7074 54.5689 69.2511 53.7121 69.0369C53.2013 68.9051 52.6082 68.3943 52.4104 67.9C52.1303 67.1915 52.1633 66.3512 52.0974 65.5768C51.8832 62.891 51.7019 60.2218 51.4548 57.536C51.0429 53.1202 50.3508 48.7538 48.7196 44.6017C48.1429 43.1517 47.4179 41.7347 46.5776 40.4001C45.7702 39.1313 44.1885 39.3785 43.6777 40.8614C43.2822 42.0313 42.9527 43.3 42.9197 44.5357C42.689 52.2305 44.2709 59.678 46.9236 66.7961C48.1759 70.1738 49.8071 73.4198 50.6639 76.9623C50.7298 77.2094 51.1088 77.3742 51.3889 77.6378C54.4206 77.0776 57.5018 76.5175 60.7148 75.9243C60.9784 75.1499 61.3244 74.4413 61.4727 73.6834C62.9886 66.2523 64.5045 58.8212 64.9164 51.2089C65.0647 48.3749 65.0318 45.5244 64.9 42.6903C64.8505 41.6852 64.2409 40.7131 63.9443 39.8563L63.9278 39.8728ZM30.6609 69.1028C29.0956 69.0369 27.9093 70.1573 27.8763 71.8709C27.7445 77.9344 30.4467 82.7292 34.6977 86.8155C34.8131 86.9144 34.9614 86.9803 35.0932 87.0626C36.7244 88.0183 38.7676 87.1615 39.0312 85.2337C39.163 84.1957 39.163 82.9105 38.6687 82.0537C36.7244 78.6265 34.9449 75.1334 33.7256 71.3766C33.2313 69.8443 31.9461 69.2841 30.6609 69.1028ZM47.0884 79.0878C46.8906 73.1891 44.9464 68.8722 41.0084 65.5109C40.1846 64.8024 39.1795 64.0279 38.0261 64.6705C36.988 65.2472 36.642 66.3677 36.6585 67.521C36.6585 68.3119 36.675 69.1193 36.8727 69.8607C37.9602 74.2106 39.855 78.1651 42.722 81.6088C43.1174 82.0866 43.6283 82.4821 44.139 82.8446C44.8805 83.3553 46.281 82.927 46.5117 82.0537C46.8413 80.8509 47.0225 79.6151 47.1214 79.0878H47.0884Z" fill="black"/>
<path d="M15 39.8013C14.6388 40.2351 14.3626 40.8953 13.9164 41.0273C11.7493 41.6686 10.4745 42.8002 10.5808 44.9503C10.5808 45.2898 10.4533 45.6482 10.3045 45.9877C9.90087 46.9684 8.1374 47.3268 7.24505 46.6478C7.09633 46.5346 6.84137 46.4592 6.77763 46.3272C5.63032 43.8187 3.2932 42.6116 0 41.9515C0.701133 40.8575 0.934821 39.8579 1.63595 39.4807C3.86683 38.2925 5.35411 36.7836 5.84278 34.4826C5.94901 34.0111 6.41641 33.4075 6.88383 33.2378C7.54247 33.0115 8.75356 32.8606 9.05102 33.1812C11.1119 35.2936 12.9816 37.5381 14.9787 39.7825L15 39.8013Z" fill="#FEBB2E"/>
<path d="M37.5845 15.284C37.0782 15.0706 36.3738 14.9925 36.1385 14.6244C34.9956 12.8366 33.5946 11.9803 31.5434 12.6326C31.2155 12.7204 30.8386 12.6982 30.4747 12.652C29.4298 12.5419 28.6577 11.0449 29.098 10.0646C29.1714 9.90127 29.1826 9.6519 29.2948 9.56027C31.4406 7.87669 32.042 5.45728 31.8841 2.31751C33.1102 2.66647 34.1322 2.61843 34.6659 3.15289C36.3526 4.85656 38.1693 5.80686 40.5099 5.65187C40.991 5.6256 41.6869 5.89077 41.9638 6.26823C42.3415 6.80343 42.7798 7.85622 42.542 8.20736C40.9994 10.6121 39.2831 12.8785 37.5976 15.2599L37.5845 15.284Z" fill="#FEBB2E"/>
<path d="M95.8021 67.3602C95.3981 67.0337 94.7788 66.7781 94.6615 66.3821C94.0919 64.4587 93.0438 63.3136 91.0096 63.3685C90.6887 63.3624 90.3521 63.2434 90.0338 63.1061C89.1135 62.7322 88.8045 61.17 89.4614 60.395C89.5708 60.2659 89.6464 60.0423 89.7723 59.9885C92.1627 59.0216 93.3431 56.9816 94.0226 54.0882C95.0448 54.7265 95.9857 54.9508 96.3305 55.5761C97.416 57.5657 98.8171 58.905 100.984 59.3777C101.428 59.48 101.99 59.9032 102.143 60.3186C102.346 60.9038 102.468 61.975 102.16 62.2316C100.128 64.0116 97.9754 65.6204 95.8202 67.3418L95.8021 67.3602Z" fill="#FEBB2E"/>
<path d="M60.4244 16.182C60.7875 15.7697 61.0853 15.1266 61.509 15.0204C63.5672 14.5044 64.8242 13.448 64.8572 11.2958C64.878 10.9569 65.0188 10.6066 65.1781 10.2762C65.6144 9.32045 67.2792 9.06376 68.0688 9.79257C68.2004 9.91404 68.4333 10.0039 68.4846 10.1393C69.3994 12.7088 71.5026 14.0475 74.5299 14.895C73.8096 15.9467 73.5306 16.9311 72.8543 17.2674C70.7032 18.3256 69.2251 19.7465 68.6286 22.0152C68.5007 22.4797 68.0283 23.0553 67.5824 23.198C66.955 23.3862 65.8175 23.4674 65.5601 23.1304C63.7698 20.9039 62.1658 18.5566 60.443 16.202L60.4244 16.182Z" fill="#FEBB2E"/>
<path d="M96.4263 29.1825C96.7894 28.7702 97.0872 28.1271 97.511 28.0209C99.5692 27.5049 100.826 26.4484 100.859 24.2963C100.88 23.9574 101.021 23.6071 101.18 23.2767C101.616 22.3209 103.281 22.0642 104.071 22.7931C104.202 22.9145 104.435 23.0044 104.487 23.1398C105.401 25.7093 107.505 27.048 110.532 27.8955C109.812 28.9472 109.533 29.9315 108.856 30.2679C106.705 31.3261 105.227 32.7469 104.631 35.0156C104.503 35.4802 104.03 36.0558 103.584 36.1985C102.957 36.3867 101.819 36.4679 101.562 36.1308C99.7717 33.9044 98.1678 31.5571 96.445 29.2025L96.4263 29.1825Z" fill="#FEBB2E"/>
<path d="M58.9841 119.621C53.1183 123.312 47.3844 123.971 41.2385 120.296C41.0902 119.505 40.7936 118.599 40.7771 117.693C40.6948 111.679 38.8329 106.307 35.6528 101.216C34.0052 98.5962 33.1319 95.4656 32.0279 92.5327C31.7148 91.7089 31.8137 90.7367 31.7148 89.7316C38.4209 91.3793 39.0635 91.1816 42.672 86.5516C44.4515 86.4692 46.1486 86.3868 48.1258 86.3045C50.8116 89.0067 54.3706 89.122 58.0614 88.4794C59.6102 88.1993 61.1591 87.8697 62.642 87.3754C63.0374 87.2436 63.4659 86.3374 63.3835 85.8925C63.3011 85.4641 62.5432 84.8545 62.0983 84.871C60.533 84.9039 58.9841 85.2334 57.4023 85.3158C55.8535 85.3982 54.2718 85.4476 52.7394 85.217C52.1462 85.1346 51.3718 84.2778 51.2565 83.6517C51.1411 83.0091 51.619 82.1852 52.0144 81.5591C52.2286 81.1966 52.7559 80.966 53.2008 80.8177C57.1552 79.4995 61.1591 78.9063 65.2619 80.2739C70.0731 81.8886 72.3634 85.6783 71.1606 90.5885C70.6827 92.5492 69.793 94.4605 68.8208 96.24C67.8487 98.036 66.6459 99.7167 65.3607 101.315C62.0983 105.368 60.2693 109.982 59.6102 115.106C59.429 116.507 59.2313 117.907 59.0006 119.654L58.9841 119.621ZM49.1804 105.088C51.3718 105.138 52.6405 104.248 53.2666 102.65C53.4973 102.056 53.2502 101.117 52.9042 100.524C52.7559 100.277 51.6189 100.293 51.2235 100.59C50.3008 101.298 49.5758 101.941 48.34 101.101C47.5162 100.541 46.4617 100.425 46.0003 101.612C45.5884 102.65 46.1981 103.49 47.0219 104.017C47.7798 104.528 48.6861 104.825 49.1969 105.072L49.1804 105.088ZM45.9344 95.6633C45.7697 94.1475 44.6822 93.3071 43.6112 93.4719C42.7049 93.6037 41.98 94.5594 42.1118 95.4656C42.2601 96.586 43.397 97.6076 44.3527 97.1957C45.0612 96.8991 45.5555 96.0588 45.9344 95.6633ZM55.6393 94.5429C55.6887 93.5049 55.0132 92.6316 54.107 92.5492C52.9536 92.4504 51.9979 93.406 52.0803 94.5758C52.1462 95.5645 52.9206 96.3059 53.9092 96.3224C54.8979 96.3224 55.6064 95.6139 55.6558 94.5429H55.6393Z" fill="white"/>
<path d="M63.9276 39.8729C64.2406 40.7297 64.8503 41.7018 64.8833 42.7069C65.0151 45.541 65.0645 48.3914 64.8998 51.2255C64.5043 58.8213 62.9719 66.2524 61.456 73.7C61.3077 74.4579 60.9617 75.1664 60.6981 75.9408C57.5016 76.534 54.4039 77.0942 51.3722 77.6544C51.0756 77.3908 50.6966 77.226 50.6472 76.9789C49.7904 73.4363 48.1757 70.1904 46.907 66.8127C44.2542 59.6946 42.6724 52.247 42.9031 44.5523C42.936 43.3166 43.2656 42.0478 43.661 40.878C44.1718 39.395 45.7536 39.1479 46.561 40.4166C47.4013 41.7348 48.1262 43.1518 48.7029 44.6183C50.3341 48.7704 51.0262 53.1368 51.4381 57.5526C51.6853 60.2218 51.8665 62.9076 52.0807 65.5933C52.1466 66.3842 52.1136 67.2081 52.3937 67.9166C52.5915 68.4109 53.1846 68.9217 53.6954 69.0535C54.5522 69.2677 55.2772 68.7075 55.4585 67.8836C55.6891 66.8126 55.7551 65.7087 55.821 64.6047C56.1011 59.052 56.9249 53.5981 58.4079 48.2431C59.034 45.9858 60.0391 43.8109 61.0277 41.6689C61.4726 40.6803 62.214 39.774 63.9111 39.8893L63.9276 39.8729Z" fill="white"/>
<path d="M30.6623 69.1026C31.9475 69.2838 33.2326 69.8605 33.7269 71.3764C34.9462 75.1496 36.7257 78.6263 38.67 82.0535C39.1643 82.9103 39.1643 84.1954 39.0325 85.2335C38.7689 87.1448 36.7257 88.0181 35.0945 87.0624C34.9627 86.98 34.7979 86.9141 34.6991 86.8153C30.448 82.729 27.7458 77.9342 27.8777 71.8707C27.9106 70.1736 29.1134 69.0367 30.6623 69.1026Z" fill="white"/>
<path d="M47.0898 79.1043C46.9909 79.6315 46.8097 80.8673 46.4801 82.0701C46.2494 82.9434 44.8489 83.3718 44.1074 82.861C43.5967 82.515 43.0859 82.1031 42.6904 81.6253C39.8235 78.1651 37.9286 74.2106 36.8412 69.8772C36.6599 69.1193 36.627 68.3119 36.627 67.5375C36.627 66.3841 36.9565 65.2637 37.9945 64.687C39.1479 64.0609 40.153 64.8188 40.9768 65.5273C44.9148 68.8886 46.8756 73.2056 47.0568 79.1043H47.0898Z" fill="white"/>
<path d="M49.1822 105.105C48.6714 104.858 47.7652 104.561 47.0072 104.05C46.1834 103.507 45.5737 102.666 45.9857 101.645C46.4635 100.459 47.518 100.574 48.3253 101.134C49.5611 101.974 50.2861 101.315 51.2088 100.623C51.5878 100.327 52.7412 100.327 52.8895 100.557C53.2355 101.151 53.4827 102.09 53.252 102.683C52.6259 104.265 51.3571 105.154 49.1657 105.122L49.1822 105.105Z" fill="black"/>
<path d="M45.9339 95.6802C45.5384 96.0756 45.0606 96.8995 44.3521 97.2125C43.3965 97.6244 42.2595 96.6029 42.1112 95.4825C41.9794 94.5762 42.7044 93.6206 43.6106 93.4888C44.6981 93.3405 45.7856 94.1643 45.9339 95.6802Z" fill="black"/>
<path d="M55.6392 94.5596C55.5898 95.6471 54.8813 96.3556 53.8927 96.3391C52.9041 96.3391 52.1297 95.5976 52.0638 94.5926C51.9979 93.4227 52.9535 92.467 54.0904 92.5659C55.0131 92.6483 55.6887 93.5216 55.6228 94.5596H55.6392Z" fill="black"/>
</svg>
