<svg width="100" height="115" viewBox="0 0 100 115" fill="none" xmlns="http://www.w3.org/2000/svg">
<path d="M99.9916 20.1866L65.9574 0.533068C64.7128 -0.190168 63.1738 -0.173324 61.946 0.558322L0 36.3164L32.2176 54.9187V91.787C32.2176 93.5782 33.4118 95.1256 35.1106 95.6049L64.5278 112.584L68 114.56C68 111.5 68.1019 100 68.1019 95.6049V73.0501V38.5955L100 20.1782L99.9916 20.1866ZM60.1631 100.92L40.148 89.365V54.7337L60.1631 43.1787V100.911V100.92ZM36.0272 47.9723L15.8439 36.3164C31.8897 27.0489 47.9354 17.7898 63.9727 8.53072L84.1645 20.1866C68.1187 29.4541 52.073 38.7048 36.0272 47.9723Z" fill="white"/>
</svg>
