<svg width="96" height="96" viewBox="0 0 96 96" fill="none" xmlns="http://www.w3.org/2000/svg">
<path fill-rule="evenodd" clip-rule="evenodd" d="M48 0C74.5097 0 96 21.4903 96 48C96 74.5097 74.5097 96 48 96C21.4903 96 0 74.5097 0 48C0 21.4903 21.4903 0 48 0ZM54.5078 20.917C52.4595 14.3614 43.5405 14.3614 41.4922 20.917L38.6289 30.0811C37.7129 33.0126 35.0862 34.9978 32.1221 34.998H22.8555C16.2271 34.9981 13.4715 43.8185 18.834 47.8701L26.3301 53.5342C28.7281 55.3461 29.7314 58.5576 28.8154 61.4893L25.9521 70.6533C23.9039 77.2089 31.119 82.66 36.4814 78.6084L43.9785 72.9453C46.3767 71.1334 49.6233 71.1334 52.0215 72.9453L59.5186 78.6084C64.881 82.66 72.0961 77.2089 70.0479 70.6533L67.1846 61.4893C66.2686 58.5576 67.2719 55.3461 69.6699 53.5342L77.166 47.8701C82.5285 43.8186 79.7729 34.9981 73.1445 34.998H63.8779C60.9138 34.9978 58.2871 33.0126 57.3711 30.0811L54.5078 20.917Z" fill="white"/>
</svg>
