<svg width="105" height="100" viewBox="0 0 105 100" fill="none" xmlns="http://www.w3.org/2000/svg">
<path d="M91.8307 0.137242C93.9645 -0.434524 96.1583 0.832473 96.7301 2.96634L103.977 30.0122C104.549 32.146 103.282 34.339 101.148 34.9107L71.0221 42.9829C69.2734 43.4515 68.0573 45.0359 68.0572 46.8462V95.4302C68.0571 97.6392 66.2661 99.43 64.0572 99.4302H39.0572C36.8482 99.4302 35.0573 97.6393 35.0572 95.4302V66.6202C35.0572 65.7149 35.6652 64.9226 36.5396 64.6883L43.5396 62.8128C44.8098 62.4724 46.0572 63.4296 46.0572 64.7446V85.4302C46.0573 86.5347 46.9527 87.4302 48.0572 87.4302H56.0572C57.1616 87.4301 58.0571 86.5346 58.0572 85.4302V35.5689C58.0572 34.6637 58.6653 33.8706 59.5396 33.6363L88.3834 25.9077C89.45 25.6217 90.0832 24.5252 89.7975 23.4585L87.7271 15.731C87.4411 14.6643 86.3438 14.0311 85.2769 14.3169L15.7301 32.9517C14.6632 33.2376 14.0301 34.335 14.316 35.4019L16.3873 43.1294C16.6733 44.1962 17.7697 44.8293 18.8365 44.5435L43.5396 37.9234C44.8097 37.5833 46.057 38.5402 46.0572 39.855V48.1807C46.0572 49.0859 45.4492 49.8783 44.5748 50.1125L30.5836 53.8609C30.3971 53.8836 30.2091 53.9189 30.0211 53.9693L12.2828 58.7222C10.1491 59.2938 7.95632 58.0276 7.38437 55.8941L0.1373 28.8482C-0.434449 26.7144 0.831626 24.5206 2.96543 23.9488L91.8307 0.137242Z" fill="white"/>
</svg>
