<svg width="100" height="88" viewBox="0 0 100 88" fill="none" xmlns="http://www.w3.org/2000/svg">
<path d="M100 32C100 34.2091 98.2091 36 96 36H70C67.7909 36 66 37.7909 66 40V84C66 86.2091 64.2091 88 62 88H37C34.7909 88 33 86.2091 33 84V50C33 48.8954 33.8954 48 35 48H42C43.1046 48 44 48.8954 44 50V74C44 75.1046 44.8954 76 46 76H54C55.1046 76 56 75.1046 56 74V26C56 24.8954 56.8954 24 58 24H86C87.1046 24 88 23.1046 88 22V14C88 12.8954 87.1046 12 86 12H14C12.8954 12 12 12.8954 12 14V22C12 23.1046 12.8954 24 14 24H42C43.1046 24 44 24.8954 44 26V34C44 35.1046 43.1046 36 42 36H4C1.79086 36 0 34.2091 0 32V4C0 1.79086 1.79086 0 4 0H96C98.2091 0 100 1.79086 100 4V32Z" fill="white"/>
</svg>
