<svg width="200" height="200" viewBox="0 0 200 200" fill="none" xmlns="http://www.w3.org/2000/svg">
<rect width="200" height="200" rx="32" fill="white"/>
<path d="M141.831 50.1372C143.964 49.5658 146.158 50.8318 146.73 52.9653L153.2 77.1128C153.771 79.2465 152.505 81.4402 150.372 82.0122L120.632 89.9799C118.884 90.4486 117.669 92.034 117.668 93.8442V145.48C117.668 147.689 115.877 149.479 113.668 149.48H88.6685C86.4594 149.48 84.6686 147.689 84.6685 145.48V110.95L95.6685 108.001V136.48C95.6685 137.585 96.5639 138.48 97.6685 138.48H105.668C106.773 138.48 107.668 137.584 107.668 136.48V84.6196C107.669 83.7145 108.277 82.9212 109.151 82.687L138.96 74.6997C140.027 74.4136 140.661 73.3171 140.376 72.2504L138.305 64.5219C138.019 63.4554 136.922 62.8223 135.855 63.1079L64.3765 82.2612C63.3097 82.547 62.6768 83.6436 62.9624 84.7104L65.0327 92.4379C65.3187 93.5048 66.416 94.1379 67.4829 93.852L93.1509 86.9741C94.4207 86.6344 95.6682 87.5912 95.6685 88.9057V92.5083C95.6685 94.3187 94.4525 95.9034 92.7038 96.372L58.6196 105.505C57.6618 105.005 56.9086 104.121 56.6069 102.995L50.1372 78.8471C49.5657 76.7134 50.8316 74.5205 52.9653 73.9487L141.831 50.1372Z" fill="black"/>
</svg>
