<svg width="96" height="96" viewBox="0 0 96 96" fill="none" xmlns="http://www.w3.org/2000/svg">
<path fill-rule="evenodd" clip-rule="evenodd" d="M48 0C74.5097 0 96 21.4903 96 48C96 74.5097 74.5097 96 48 96C21.4903 96 0 74.5097 0 48C0 21.4903 21.4903 0 48 0ZM52.8809 27.6875C51.3446 22.7708 44.6554 22.7708 43.1191 27.6875L40.9717 34.5605C40.2847 36.7594 38.314 38.248 36.0908 38.248H29.1416C24.1704 38.2481 22.1034 44.8636 26.125 47.9023L31.748 52.1504C33.5464 53.5094 34.2983 55.9185 33.6113 58.1172L31.4639 64.9902C29.9279 69.9067 35.3396 73.9954 39.3613 70.957L44.9834 66.709C46.782 65.35 49.218 65.35 51.0166 66.709L56.6387 70.957C60.6604 73.9954 66.072 69.9067 64.5361 64.9902L62.3887 58.1172C61.7017 55.9185 62.4536 53.5094 64.252 52.1504L69.875 47.9023C73.8966 44.8636 71.8296 38.2481 66.8584 38.248H59.9092C57.686 38.248 55.7153 36.7594 55.0283 34.5605L52.8809 27.6875Z" fill="white"/>
</svg>
